PathFileType	4	(X/Y/Z)	C:\Users\Basilio\Documents\Thesis Gigler\squatting_fais\c3dfiles\019\SLS_back_pre1\markers_experimental.trc
DataRate	CameraRate	NumFrames	NumMarkers	Units	OrigDataRate	OrigDataStartFrame	OrigNumFrames
200.000000	200.000000	4	59	mm	200.000000	360	1442
Frame#	Time	LBHD			RBHD			C7			T10			CLAV			LSHO			LUUPA			LMUPA			LDUPA			LLEP			LMEP			LRAD			LUL			LRFIN			RSHO			RUPA1			RMUPA			RDUPA			RLEP			RMEP			RRAD			RUL			RUFIN			LASI			RASI			USACR			LSACR			RSACR			LTHI1			LTHI2			LTHI3			LTHI4			LLFC			LTIB1			LTIB2			LTIB3			LTIB4			LLMAL			LMMAL			LHEE			LMT1			LMT2			LMT5			RTHI2			RTHI4			RLFC			RTIB1			RTIB2			RTIB3			RTIB4			RLMAL			RMMAL			RHEE			RMT1			RMT2			RMT5			FHD			RTHI			RTHI3			
		X1	Y1	Z1	X2	Y2	Z2	X3	Y3	Z3	X4	Y4	Z4	X5	Y5	Z5	X6	Y6	Z6	X7	Y7	Z7	X8	Y8	Z8	X9	Y9	Z9	X10	Y10	Z10	X11	Y11	Z11	X12	Y12	Z12	X13	Y13	Z13	X14	Y14	Z14	X15	Y15	Z15	X16	Y16	Z16	X17	Y17	Z17	X18	Y18	Z18	X19	Y19	Z19	X20	Y20	Z20	X21	Y21	Z21	X22	Y22	Z22	X23	Y23	Z23	X24	Y24	Z24	X25	Y25	Z25	X26	Y26	Z26	X27	Y27	Z27	X28	Y28	Z28	X29	Y29	Z29	X30	Y30	Z30	X31	Y31	Z31	X32	Y32	Z32	X33	Y33	Z33	X34	Y34	Z34	X35	Y35	Z35	X36	Y36	Z36	X37	Y37	Z37	X38	Y38	Z38	X39	Y39	Z39	X40	Y40	Z40	X41	Y41	Z41	X42	Y42	Z42	X43	Y43	Z43	X44	Y44	Z44	X45	Y45	Z45	X46	Y46	Z46	X47	Y47	Z47	X48	Y48	Z48	X49	Y49	Z49	X50	Y50	Z50	X51	Y51	Z51	X52	Y52	Z52	X53	Y53	Z53	X54	Y54	Z54	X55	Y55	Z55	X56	Y56	Z56	X57	Y57	Z57	X58	Y58	Z58	X59	Y59	Z59	

361	1.8	-378.6816101074219	1690.84765625	-793.4525146484377	-378.3330078125001	1684.27587890625	-653.7868652343751	-406.6421508789064	1503.034057617188	-715.8491210937501	-423.5816650390626	1211.7998046875	-718.3560791015626	-270.4621582031251	1463.35498046875	-726.8306274414064	-338.1947937011719	1495.68359375	-867.9346923828127	-217.3025054931641	1440.042358398438	-927.217712402344	-187.8736877441407	1442.297119140625	-887.7857666015627	-150.8388214111328	1427.690795898438	-933.195007324219	-88.23209381103517	1378.327270507813	-958.9052734375002	-95.49734497070314	1326.80615234375	-929.4063720703127	158.3192596435547	1390.30908203125	-903.1829833984377	157.6953430175782	1340.103881835938	-945.4511718750002	233.568832397461	1400.457153320313	-910.8572998046877	-313.5436706542969	1495.729370117188	-588.9135131835939	-200.7667846679688	1393.361206054688	-496.0687561035157	-168.8251037597657	1421.733032226563	-522.9264526367189	-134.6194152832032	1378.96044921875	-497.092498779297	-60.17226791381837	1359.95263671875	-506.3724975585939	-76.64585876464845	1310.540649414063	-531.1704711914064	181.935546875	1387.61572265625	-564.1330566406251	190.7879180908203	1330.927368164063	-528.6564331054689	264.4794616699219	1390.827026367188	-546.0615234375001	-263.0491638183594	1020.06298828125	-849.1785888671877	-248.2727661132813	1003.289489746094	-641.0095214843751	-418.0284729003907	1081.131225585938	-727.6936645507814	-424.0860595703126	1050.336669921875	-757.9964599609376	-418.6350097656251	1047.375	-700.5394897460939	-268.6993713378907	767.6400146484376	-933.0859985351565	-215.3353271484376	702.3415527343751	-940.4750976562502	-170.7053985595703	715.9877929687501	-926.143249511719	-226.5216369628907	642.7849121093751	-932.9361572265627	-221.6783599853516	558.2449340820314	-918.902526855469	-290.1586914062501	439.9652709960939	-878.869812011719	-361.0381774902344	467.448699951172	-922.7014770507815	-343.4000549316407	434.4155578613282	-901.073913574219	-410.6317443847657	400.9650878906251	-856.6468505859377	-560.2296142578126	403.5296630859376	-862.0816650390627	-528.8479003906251	392.5906066894532	-781.8085937500002	-607.2437133789064	449.0955810546876	-803.6723632812502	-549.8936767578126	243.8379974365235	-785.2353515625002	-560.4229736328126	237.7089538574219	-823.1293945312502	-607.5131225585939	267.3950195312501	-865.7514648437502	-250.6565399169922	743.8260498046876	-594.5664672851564	-278.0066223144532	667.6784057617189	-600.9830322265626	-318.6174316406251	509.3996887207032	-641.8607177734376	-291.9472351074219	332.6070556640626	-721.1672363281251	-343.1734924316407	250.3325347900391	-667.9487915039064	-312.6007385253907	249.5764312744141	-704.1677856445314	-329.9479064941407	213.1559143066407	-746.5260620117189	-391.6068115234376	128.7291412353516	-705.0559082031251	-380.3235778808594	136.6655883789063	-780.0555419921877	-459.091766357422	107.5701599121094	-753.1774902343751	-260.3129272460938	53.96325302124025	-785.7370605468752	-254.6595001220704	60.37884521484376	-740.9662475585939	-292.4810180664063	50.00376129150392	-685.0312500000001	-245.4733428955079	1719.924926757813	-655.1644287109376	-289.8686828613282	795.946716308594	-582.9744873046876	-226.0728607177735	752.5376586914064	-620.1416625976564	
362	1.805	-378.9028015136719	1690.917358398438	-793.4439086914065	-378.3964538574219	1684.35791015625	-653.8289794921876	-406.7350463867189	1502.9921875	-715.7727661132814	-423.4819335937501	1211.736083984375	-718.2521362304689	-270.5834350585938	1463.406372070313	-726.7772216796876	-338.2844848632813	1495.696166992188	-867.9152832031252	-217.2795867919922	1439.96533203125	-927.097106933594	-187.9083099365235	1442.304809570313	-887.7155761718752	-150.8705596923828	1427.714965820313	-933.1289062500002	-88.25609588623048	1378.373901367188	-958.7961425781252	-95.1180877685547	1326.438110351563	-929.2189941406252	158.2824249267578	1390.41650390625	-902.9449462890627	157.6536254882813	1340.15576171875	-945.2512207031252	233.6091918945313	1400.595581054688	-910.608581542969	-313.4645996093751	1495.726318359375	-588.7809448242189	-200.7695922851563	1393.34326171875	-495.8709716796876	-168.936508178711	1421.831298828125	-522.8832397460939	-134.6838989257813	1378.953247070313	-497.0135192871095	-60.13203048706056	1360.067504882813	-506.2940673828126	-76.62024688720705	1310.65625	-531.0310668945314	182.0631103515625	1387.6279296875	-563.9367675781251	190.8238830566407	1330.9248046875	-528.5211181640626	264.6812438964844	1390.659057617188	-545.9490966796876	-263.1268310546876	1020.084350585938	-849.0384521484377	-248.4322357177735	1003.286926269531	-640.7813110351564	-418.0298156738282	1081.171752929688	-727.6535644531251	-424.1611938476564	1050.36181640625	-757.8984985351564	-418.6849975585939	1047.38525390625	-700.4362792968751	-268.7253417968751	767.7093505859376	-933.035827636719	-215.3770446777344	702.4016113281251	-940.556091308594	-170.7564086914063	716.0684204101564	-926.2657470703127	-226.5730438232422	642.8741455078126	-933.017028808594	-221.6219940185547	558.3255615234376	-919.0686035156252	-290.2329406738282	440.0235290527345	-878.8147583007815	-361.0325622558594	467.4862365722657	-922.7144775390627	-343.2225646972657	434.3916625976564	-901.0833129882815	-410.4764404296876	400.9084777832032	-856.5715332031252	-560.0994262695314	403.5289306640626	-861.9503173828127	-528.5684204101564	392.531463623047	-781.694274902344	-607.0742187500001	449.0472717285157	-803.470397949219	-549.5114746093751	243.9009094238282	-785.063171386719	-560.3052978515626	237.6039276123047	-822.9182739257815	-607.4374389648439	267.3161621093751	-865.627624511719	-250.9165039062501	743.7660522460939	-594.2850952148439	-278.1452026367188	667.6925659179689	-600.7500000000001	-318.5912475585938	509.3420715332032	-641.6679687500001	-291.8525085449219	332.5277709960938	-720.8165283203126	-343.3180236816407	250.3351287841797	-667.6581420898439	-312.7076110839844	249.4408111572266	-703.8315429687501	-329.8734436035157	213.1159667968751	-746.3026123046876	-391.6407165527345	128.710189819336	-704.9077148437501	-380.3702392578126	136.7270660400391	-779.837585449219	-459.1008911132814	107.5597000122071	-753.1289672851564	-260.2907714843751	54.07155609130861	-785.7152099609377	-254.6322479248047	60.38292694091798	-740.9581298828126	-292.5021362304688	49.88457489013673	-684.9763793945314	-245.542709350586	1720.022705078125	-655.2720336914064	-289.9791259765626	795.861999511719	-582.8432006835939	-226.2281341552735	752.5605468750001	-619.8821411132814	
363	1.81	-379.3284912109376	1691.008911132813	-793.4005126953127	-378.4893798828126	1684.475341796875	-653.7382812500001	-406.7296752929689	1502.96826171875	-715.6855468750001	-423.5396423339845	1211.788940429688	-718.1776123046876	-270.6050415039063	1463.416015625	-726.6795654296876	-338.3035278320313	1495.685546875	-867.830749511719	-217.4612426757813	1439.922241210938	-926.8913574218752	-188.2942657470703	1442.017211914063	-887.4163818359377	-150.9452362060547	1427.426391601563	-932.8438110351565	-88.31866455078126	1378.362426757813	-958.6658935546877	-95.20629119873048	1326.451171875	-929.1630859375002	158.2213287353516	1390.448974609375	-902.7185058593752	157.6169586181641	1340.258178710938	-945.0626220703127	233.5487518310547	1400.707153320313	-910.3642578125002	-313.5623474121094	1495.614379882813	-588.6783447265626	-200.7100524902344	1393.388549804688	-495.9432373046876	-168.745834350586	1421.496826171875	-522.8256835937501	-134.5428314208985	1378.995239257813	-496.9356994628907	-60.12464141845705	1360.065063476563	-506.2935791015626	-76.59446716308595	1310.666137695313	-530.9832153320314	182.010971069336	1387.622436523438	-563.8652343750001	190.8800201416016	1330.85888671875	-528.3883056640626	264.7202453613282	1390.673706054688	-545.8015136718751	-263.2446594238282	1020.132202148438	-848.827575683594	-248.6612396240235	1003.257568359375	-640.6442260742189	-418.0508117675782	1081.168823242188	-727.5800170898439	-424.0754394531251	1050.38037109375	-757.8185424804689	-418.7647399902345	1047.3955078125	-700.3765258789064	-268.9397888183594	767.8113403320314	-933.0784912109377	-215.5008392333985	702.5328979492189	-940.6173095703127	-170.8118743896485	716.1636352539064	-926.2935180664065	-226.5300598144532	642.9293212890626	-933.0938720703127	-221.645980834961	558.3804321289064	-919.275817871094	-290.0278930664063	440.0668945312501	-879.0406494140627	-360.9288635253907	467.4414978027345	-922.7185058593752	-343.1388854980469	434.4152832031251	-901.1160888671877	-410.3509216308595	400.9381103515626	-856.5574340820315	-559.9522094726564	403.4784240722657	-861.8311767578127	-528.3713378906251	392.5127258300782	-781.5528564453127	-606.9280395507814	449.0520324707032	-803.2694091796877	-549.2398071289064	243.955062866211	-784.9365234375002	-559.9857788085939	237.6302490234376	-822.812683105469	-607.1829833984376	267.2907714843751	-865.3530273437502	-251.2469787597657	743.3364868164064	-595.9646606445314	-278.2545471191407	667.6660766601564	-600.5327148437501	-318.5540161132813	509.2513732910157	-641.4256591796876	-291.8789672851563	332.4805297851563	-720.3912353515626	-343.4181823730469	250.2056884765626	-667.3178100585939	-312.8186035156251	249.3536834716797	-703.4362792968751	-329.7644042968751	213.0148315429688	-745.9674682617189	-391.6553955078126	128.6419372558594	-704.6894531250001	-380.3447875976563	136.8184814453125	-779.689392089844	-459.0929565429689	107.5666885375977	-753.0713500976564	-260.3285217285157	54.21259689331056	-785.6799316406252	-254.6746520996094	60.291805267334	-740.8529663085939	-292.5220336914063	49.74990844726564	-684.8862915039064	-245.599349975586	1720.011352539063	-655.1035766601564	-290.2234191894532	795.881042480469	-582.5844726562501	-227.3391723632813	752.2196044921876	-619.9736328125001	
364	1.815	-379.2225952148438	1690.966064453125	-793.3699340820315	-378.6109313964844	1684.520751953125	-653.6765136718751	-406.6895446777345	1502.96630859375	-715.5692138671876	-423.4812622070314	1211.801025390625	-718.0983276367189	-270.6331481933594	1463.451293945313	-726.6070556640626	-338.2783203125001	1495.662475585938	-867.7441406250002	-217.3503417968751	1439.944091796875	-926.9346923828127	-188.0129089355469	1442.27294921875	-887.4880981445315	-150.881332397461	1427.670532226563	-932.8999633789065	-88.14534759521486	1378.344482421875	-958.500427246094	-95.18608856201173	1326.508544921875	-929.003845214844	158.1811218261719	1390.523193359375	-902.4852294921877	157.5878601074219	1340.28076171875	-944.7915039062502	233.4109344482422	1400.788452148438	-910.118835449219	-313.4742736816407	1495.63134765625	-588.5399780273439	-200.6552276611329	1393.315551757813	-495.7994384765626	-168.9013671875	1421.811889648438	-522.7376708984376	-134.5357360839844	1378.919067382813	-496.8256225585939	-59.99865341186525	1360.0947265625	-506.2412109375001	-76.53749847412111	1310.680053710938	-530.8032226562501	182.5585021972657	1387.53125	-563.2656250000001	190.8302154541016	1330.928833007813	-528.2741088867189	264.5169677734376	1390.736938476563	-545.5301513671876	-263.3835449218751	1020.182312011719	-848.684753417969	-248.7068176269532	1003.293823242188	-640.4937744140626	-418.1112670898439	1081.175903320313	-727.5125732421876	-424.2988586425782	1050.440185546875	-757.7094116210939	-418.8092346191407	1047.432250976563	-700.3464965820314	-268.9775695800782	767.8450317382814	-933.0849609375002	-215.4594879150391	702.5682983398439	-940.681579589844	-170.9070129394532	716.2520751953126	-926.4348144531252	-226.5680541992188	643.0173339843751	-933.214538574219	-221.6906433105469	558.4941406250001	-919.3802490234377	-289.9851074218751	440.0621337890626	-879.0767211914065	-360.9768981933594	467.5481567382814	-922.7774047851565	-343.0323791503907	434.3913879394532	-901.1621093750002	-410.3194274902345	401.7416992187501	-856.0967407226565	-559.7832031250001	403.4750366210939	-861.6809082031252	-528.2536010742189	392.5741577148439	-781.4046020507815	-606.7946777343751	449.030487060547	-803.172790527344	-549.1052856445314	243.9265747070313	-784.737976074219	-559.8356323242189	237.5144805908204	-822.6188964843752	-606.9134521484376	267.2537231445313	-865.0935668945315	-251.4212341308594	743.3437500000001	-595.7332763671876	-278.4295654296876	667.6104125976564	-600.2177124023439	-318.5062561035157	509.2719726562501	-641.2827148437501	-291.8059692382813	332.2954711914063	-719.9955444335939	-343.5899353027344	250.1177368164063	-667.1147460937501	-312.8955078125001	249.3122711181641	-702.9817504882814	-329.7750549316407	212.9928283691407	-745.6372070312501	-391.7317199707032	128.5957946777344	-704.4685058593751	-380.3869934082032	136.9469604492188	-779.3287353515627	-459.1012268066407	107.5639801025391	-753.0266113281251	-260.6156921386719	54.65793228149415	-785.677429199219	-254.7466735839844	60.34128952026369	-740.7509155273439	-292.5083923339844	49.64389419555665	-684.7902832031251	-245.7223815917969	1720.059936523438	-655.0911865234376	-290.4975280761719	795.784118652344	-582.2969360351564	-227.5531616210938	752.2047729492189	-619.6644897460939	
